<svg width="48" height="48" viewBox="0 0 48 48" fill="none" xmlns="http://www.w3.org/2000/svg">
<path d="M14.5001 29.5885C18.4119 27.912 24.5589 27.2269 24.5589 27.2269C24.5589 27.2269 30.706 27.912 34.0589 29.5885C37.4119 31.265 39.6472 34.0587 39.6472 34.0587L24.5589 42.4395L8.35297 34.0587C8.35297 34.0587 10.5883 31.265 14.5001 29.5885Z" fill="#AAAAAA" fill-opacity="0.72"/>
<path d="M21.7647 6.29054C23.1479 5.49194 24.8521 5.49194 26.2353 6.29054L38.2192 13.2095C39.6024 14.008 40.4545 15.4839 40.4545 17.0811V30.9189C40.4545 32.5161 39.6024 33.992 38.2192 34.7905L26.2353 41.7095C24.8521 42.508 23.1479 42.508 21.7647 41.7095L9.78082 34.7905C8.39762 33.992 7.54553 32.5161 7.54553 30.9189V17.0811C7.54553 15.4839 8.39762 14.008 9.78082 13.2095L21.7647 6.29054Z" stroke="white" stroke-width="1.74353"/>
<path d="M33.5001 29.0286C30.706 32.9404 23.4413 40.7639 23.4413 40.7639C23.4413 40.7639 16.456 33.4992 13.9413 29.0286C11.4266 24.558 8.35303 15.058 8.35303 15.058C8.35303 15.058 18.4119 11.7051 24.0001 11.7051C29.5883 11.7051 39.6471 15.058 39.6471 15.058C39.6471 15.058 36.2942 25.1168 33.5001 29.0286Z" fill="white" fill-opacity="0.61"/>
<path d="M13.6616 18.9707L24.0078 23.4413L33.7793 18.9707" stroke="white" stroke-width="1.11765"/>
<path d="M23.7207 23.4414V32.3826" stroke="white" stroke-width="1.11765"/>
</svg>
