<?xml version="1.0" encoding="UTF-8"?>
<svg id="Layer_1" xmlns="http://www.w3.org/2000/svg" version="1.1" viewBox="0 0 73 76">
  <!-- Generator: Adobe Illustrator 29.8.3, SVG Export Plug-In . SVG Version: 2.1.1 Build 3)  -->
  <defs>
    <style>
      .st0 {
        fill: #fff;
      }

      .st1 {
        fill: #54c0ff;
      }

      .st2 {
        opacity: .72;
      }

      .st3 {
        opacity: .61;
      }

      .st4 {
        fill: #0063d3;
      }

      .st5 {
        fill: #00f2ff;
      }
    </style>
  </defs>
  <g class="st2">
    <path class="st4" d="M19.67,47.9c6.93-2.97,17.82-4.18,17.82-4.18,0,0,10.89,1.21,16.83,4.18,5.94,2.97,9.9,7.92,9.9,7.92l-26.73,14.84-28.7-14.84s3.96-4.95,10.89-7.92Z"/>
  </g>
  <g class="st3">
    <path class="st1" d="M36.51,17.3c9.9,0,27.73,6.12,27.73,6.12,0,0-5.45,17.35-9.9,25.51-4.45,8.15-17.79,21.46-17.83,21.5-.03-.03-13.37-13.34-17.83-21.5-4.46-8.16-9.9-25.51-9.9-25.51,0,0,17.83-6.12,27.73-6.12h0Z"/>
  </g>
  <path class="st0" d="M36.5,73.33c-1.87,0-3.74-.48-5.41-1.45l-21.23-12.26c-3.34-1.93-5.41-5.52-5.41-9.37v-24.51c0-3.86,2.07-7.45,5.41-9.37L31.09,4.11c3.34-1.93,7.49-1.93,10.82,0l21.22,12.26c3.34,1.93,5.41,5.52,5.41,9.37v24.51c0,3.86-2.07,7.45-5.41,9.37l-21.22,12.26c-1.67.96-3.54,1.45-5.41,1.45ZM36.5,8.48c-.87,0-1.73.22-2.51.67h0s-21.23,12.26-21.23,12.26c-1.55.89-2.51,2.56-2.51,4.34v24.51c0,1.78.96,3.45,2.51,4.34l21.23,12.26c1.55.89,3.47.89,5.01,0l21.23-12.26c1.55-.89,2.51-2.56,2.51-4.34v-24.51c0-1.78-.96-3.45-2.51-4.34l-21.22-12.26c-.77-.45-1.64-.67-2.51-.67Z"/>
  <path class="st5" d="M18.68,29.09c.54.39,1.08.77,1.63,1.14,4.91,3.38,10.05,6.23,15.42,8.55.14.06.28.12.43.18l.86.38.87-.4c5.17-2.4,10.11-5.29,14.82-8.68.54-.39,1.07-.78,1.6-1.18h0c-.65.14-1.3.29-1.94.44-5.65,1.35-11.06,3.19-16.25,5.54l1.73-.02c-.14-.06-.28-.12-.43-.19-5.37-2.32-10.97-4.11-16.79-5.37-.65-.14-1.3-.27-1.95-.4h0Z"/>
  <path class="st5" d="M38.65,37.01h-4.27c.03.26.07.53.11.79.64,4.75,1.28,9.5,1.92,14.25.03.26.07.53.11.79h0c.03-.26.07-.53.11-.79.64-4.75,1.28-9.5,1.92-14.25.03-.26.07-.53.11-.79h0,0Z"/>
</svg>