<svg width="72" height="73" viewBox="0 0 72 73" fill="none" xmlns="http://www.w3.org/2000/svg">
<path d="M18.4619 46.7034C25.6833 43.6085 37.031 42.3438 37.031 42.3438C37.031 42.3438 48.3789 43.6085 54.5685 46.7034C60.7583 49.7983 64.8848 54.9556 64.8848 54.9556L37.031 70.427L7.11401 54.9556C7.11401 54.9556 11.2405 49.7983 18.4619 46.7034Z" fill="#0063D3" fill-opacity="0.72"/>
<path d="M36.0134 14.8125C46.3127 14.8126 64.8337 21.1675 64.9119 21.1943C64.9119 21.1943 59.235 39.2752 54.5906 47.7842C49.9559 56.275 36.0721 70.1289 36.0134 70.1875C36.0134 70.1875 22.0798 56.293 17.4353 47.7842C12.7909 39.2752 7.11401 21.1943 7.11401 21.1943C7.15271 21.181 25.7032 14.8125 36.0134 14.8125Z" fill="#54C0FF" fill-opacity="0.61"/>
<path d="M31.878 3.69163C34.4315 2.21737 37.5776 2.21737 40.131 3.69163L62.2539 16.4644C64.8074 17.9385 66.3804 20.6631 66.3804 23.6116V49.1569C66.3804 52.1054 64.8074 54.83 62.2539 56.3041L40.131 69.0769C37.5776 70.551 34.4315 70.551 31.878 69.0769L9.75513 56.3041C7.20167 54.83 5.62866 52.1054 5.62866 49.1569V23.6116C5.62866 20.6631 7.20167 17.9385 9.75513 16.4644L31.878 3.69163Z" stroke="#00226D" stroke-width="3.90879"/>
<path d="M17.4331 27.1016L36.5327 35.3545L54.5715 27.1016" stroke="white" stroke-width="4.45227"/>
<path d="M36.0132 35.3516V51.8575" stroke="white" stroke-width="4.45227"/>
</svg>
