<svg width="48" height="48" viewBox="0 0 48 48" fill="none" xmlns="http://www.w3.org/2000/svg">
<path d="M22.5273 43.2462L5.5299 33.9212C4.80261 33.5222 4.84939 32.4622 5.609 32.1288L22.6033 24.6702C22.8508 24.5616 23.1317 24.5578 23.382 24.6596L41.7215 32.1196C42.5153 32.4425 42.5618 33.5489 41.798 33.9373L23.4615 43.2608C23.1668 43.4107 22.8171 43.4052 22.5273 43.2462Z" fill="white" fill-opacity="0.14" stroke="white" stroke-width="1.3"/>
<path d="M22.5273 33.2462L5.5299 23.9212C4.80261 23.5222 4.84939 22.4622 5.609 22.1288L22.6033 14.6702C22.8508 14.5616 23.1317 14.5578 23.382 14.6596L41.7215 22.1196C42.5153 22.4425 42.5618 23.5489 41.798 23.9373L23.4615 33.2608C23.1668 33.4107 22.8171 33.4052 22.5273 33.2462Z" fill="white" fill-opacity="0.14" stroke="white" stroke-width="1.3"/>
<path d="M22.5273 24.2463L5.5299 14.9213C4.80261 14.5223 4.84939 13.4623 5.609 13.1289L22.6033 5.67025C22.8508 5.56164 23.1317 5.55782 23.382 5.65965L41.7215 13.1197C42.5153 13.4426 42.5618 14.549 41.798 14.9374L23.4615 24.2609C23.1668 24.4108 22.8171 24.4053 22.5273 24.2463Z" fill="white" fill-opacity="0.14" stroke="white" stroke-width="1.3"/>
</svg>
