<svg width="48" height="48" viewBox="0 0 48 48" fill="none" xmlns="http://www.w3.org/2000/svg">
<path d="M43.75 20.8307C43.1597 20.8307 42.6652 20.6307 42.2666 20.2307C41.868 19.8307 41.668 19.3363 41.6666 18.7474V14.5807H37.5C36.9097 14.5807 36.4152 14.3807 36.0166 13.9807C35.618 13.5807 35.418 13.0863 35.4166 12.4974C35.4152 11.9085 35.6152 11.4141 36.0166 11.0141C36.418 10.6141 36.9125 10.4141 37.5 10.4141H41.6666C42.8125 10.4141 43.7937 10.8224 44.6104 11.6391C45.427 12.4557 45.8347 13.4363 45.8333 14.5807V18.7474C45.8333 19.3377 45.6333 19.8328 45.2333 20.2328C44.8333 20.6328 44.3388 20.8321 43.75 20.8307ZM6.24996 20.8307C5.65968 20.8307 5.16524 20.6307 4.76663 20.2307C4.36802 19.8307 4.16801 19.3363 4.16663 18.7474V14.5807C4.16663 13.4349 4.57496 12.4543 5.39163 11.6391C6.20829 10.8238 7.18885 10.4155 8.33329 10.4141H12.5C13.0902 10.4141 13.5854 10.6141 13.9854 11.0141C14.3854 11.4141 14.5847 11.9085 14.5833 12.4974C14.5819 13.0863 14.3819 13.5814 13.9833 13.9828C13.5847 14.3842 13.0902 14.5835 12.5 14.5807H8.33329V18.7474C8.33329 19.3377 8.13329 19.8328 7.73329 20.2328C7.33329 20.6328 6.83885 20.8321 6.24996 20.8307ZM37.5 39.5807C36.9097 39.5807 36.4152 39.3807 36.0166 38.9807C35.618 38.5807 35.418 38.0863 35.4166 37.4974C35.4152 36.9085 35.6152 36.4141 36.0166 36.0141C36.418 35.6141 36.9125 35.4141 37.5 35.4141H41.6666V31.2474C41.6666 30.6571 41.8666 30.1627 42.2666 29.7641C42.6666 29.3655 43.1611 29.1655 43.75 29.1641C44.3388 29.1627 44.834 29.3627 45.2354 29.7641C45.6368 30.1655 45.8361 30.6599 45.8333 31.2474V35.4141C45.8333 36.5599 45.4257 37.5411 44.6104 38.3578C43.7951 39.1745 42.8138 39.5821 41.6666 39.5807H37.5ZM8.33329 39.5807C7.18746 39.5807 6.2069 39.1731 5.39163 38.3578C4.57635 37.5425 4.16801 36.5613 4.16663 35.4141V31.2474C4.16663 30.6571 4.36663 30.1627 4.76663 29.7641C5.16663 29.3655 5.66107 29.1655 6.24996 29.1641C6.83885 29.1627 7.33399 29.3627 7.73538 29.7641C8.13676 30.1655 8.33607 30.6599 8.33329 31.2474V35.4141H12.5C13.0902 35.4141 13.5854 35.6141 13.9854 36.0141C14.3854 36.4141 14.5847 36.9085 14.5833 37.4974C14.5819 38.0863 14.3819 38.5814 13.9833 38.9828C13.5847 39.3842 13.0902 39.5835 12.5 39.5807H8.33329Z" fill="white"/>
</svg>
