<svg width="48" height="48" viewBox="0 0 48 48" fill="none" xmlns="http://www.w3.org/2000/svg">
<path d="M16.208 8.10156L29.7664 25.0885" stroke="white" stroke-width="1.55844"/>
<path d="M12.9351 38.4945V29.1073C12.9351 28.2274 13.8219 27.6244 14.6402 27.9479L18.2567 29.3776C19.0893 29.7068 19.6364 30.5113 19.6364 31.4066V41.6114" stroke="white" stroke-width="1.55844"/>
<path d="M24.9351 43.9484V27.1172" stroke="white" stroke-width="1.55844"/>
<path d="M4.49629 22.4803L3.36405 20.0416C3.12631 19.5296 3.26232 18.9217 3.69561 18.5598L16.2077 8.10849L31.6395 4.42752C32.5872 4.20145 33.5799 4.54814 34.1808 5.31512L43.9897 17.8344C44.5094 18.4977 44.2351 19.4748 43.4461 19.7707L30.4047 24.6612C30.1909 24.7414 30.0032 24.8788 29.8621 25.0583L27.6167 27.9162C27.1216 28.5463 26.1692 28.5524 25.666 27.9288L16.3471 16.3785C15.9226 15.8525 15.1563 15.7604 14.6194 16.171L5.91241 22.8293C5.43737 23.1926 4.74813 23.0227 4.49629 22.4803Z" stroke="white" stroke-width="1.55844"/>
<path d="M8.104 21.8167V34.1008C8.104 35.4462 8.89084 36.6672 10.116 37.2231L23.816 43.4388C24.5216 43.7589 25.3359 43.7329 26.0196 43.3682L39.4837 36.1874C40.6009 35.5915 41.2988 34.4284 41.2988 33.1622V20.4141" stroke="white" stroke-width="1.55844"/>
</svg>
