<svg width="48" height="48" viewBox="0 0 48 48" fill="none" xmlns="http://www.w3.org/2000/svg">
<path d="M25.5167 16.0266C24.3534 16.0266 23.3937 15.6776 22.6376 14.9796C21.9105 14.2526 21.547 13.351 21.547 12.275C21.547 11.1117 21.9832 10.1084 22.8557 9.26506C23.7281 8.42169 24.7896 8 26.0401 8C27.2034 8 28.1486 8.36352 28.8756 9.09057C29.6317 9.81761 30.0098 10.7191 30.0098 11.7952C30.0098 12.9584 29.5736 13.9618 28.7011 14.8051C27.8287 15.6194 26.7672 16.0266 25.5167 16.0266ZM22.4631 39.5392C21.3289 39.5392 20.311 39.1466 19.4095 38.3614C18.5079 37.5471 18.0572 36.2529 18.0572 34.4789C18.0572 33.4611 18.188 32.5159 18.4498 31.6435C18.7406 30.7419 19.0605 29.8695 19.4095 29.0261C19.7875 28.1827 20.1074 27.3685 20.3692 26.5832C20.66 25.769 20.8054 24.9692 20.8054 24.184C20.8054 23.486 20.6891 22.9916 20.4564 22.7008C20.2238 22.3809 19.9475 22.221 19.6276 22.221C19.1332 22.221 18.6534 22.5409 18.188 23.1807L17.8827 23.0062C17.999 21.8429 18.3625 20.8541 18.9733 20.0398C19.6131 19.1965 20.3837 18.5421 21.2853 18.0768C22.2159 17.6115 23.1319 17.3789 24.0335 17.3789C25.1386 17.3789 26.0983 17.7424 26.9126 18.4694C27.7269 19.1674 28.134 20.3161 28.134 21.9156C28.134 22.8753 27.9886 23.8932 27.6978 24.9692C27.436 26.0162 27.1161 27.0631 26.7381 28.11C26.3891 29.157 26.0692 30.1312 25.7784 31.0328C25.5167 31.9343 25.3858 32.705 25.3858 33.3448C25.3858 33.8973 25.4876 34.2899 25.6911 34.5226C25.9238 34.7552 26.171 34.8715 26.4327 34.8715C26.6945 34.8715 26.9417 34.7988 27.1743 34.6534C27.436 34.4789 27.6251 34.2899 27.7414 34.0863L28.0468 34.1736C28.0468 35.2496 27.7559 36.1948 27.1743 37.0091C26.6218 37.7943 25.9238 38.4195 25.0804 38.8848C24.2371 39.3211 23.3646 39.5392 22.4631 39.5392Z" fill="white"/>
</svg>
