<svg width="14807" height="3000" viewBox="0 0 14807 3000" fill="none" xmlns="http://www.w3.org/2000/svg">
<path d="M708.476 1891.41C985.597 1772.64 1421.06 1724.11 1421.06 1724.11C1421.06 1724.11 1856.54 1772.64 2094.07 1891.41C2331.6 2010.18 2489.95 2208.09 2489.95 2208.09L1421.06 2801.81L273 2208.09C273 2208.09 431.355 2010.18 708.476 1891.41Z" fill="#0063D3" fill-opacity="0.72"/>
<path d="M1386.66 667.511C1783.63 669.409 2491 912.393 2491 912.393C2490.8 913.015 2273.08 1606.41 2094.93 1932.79C1927.83 2238.91 1447.45 2726.66 1388.05 2786.43L1382 2792.5C1381.84 2792.34 847.279 2259.27 669.073 1932.79C490.922 1606.41 273.195 913.015 273 912.393C273 912.393 985.931 667.5 1382 667.5L1386.66 667.511Z" fill="#54C0FF" fill-opacity="0.61"/>
<path d="M1223.32 240.931C1321.31 184.356 1442.04 184.356 1540.03 240.931L2388.99 731.086C2486.98 787.653 2547.35 892.209 2547.35 1005.36V1985.66C2547.35 2098.81 2486.98 2203.37 2388.99 2259.93L1540.03 2750.09C1442.04 2806.66 1321.31 2806.66 1223.32 2750.09L374.353 2259.93C276.364 2203.37 216 2098.81 216 1985.66V1005.36C216 892.209 276.364 787.653 374.353 731.086L1223.32 240.931Z" stroke="#00226D" stroke-width="150"/>
<path d="M669 1139.22L1401.95 1455.93L2094.18 1139.22" stroke="white" stroke-width="170.856"/>
<path d="M1382 1455.94V2089.35" stroke="white" stroke-width="170.856"/>
<path d="M4758 804V2200H4478V1292L4104 2200H3892L3516 1292V2200H3236V804H3554L3998 1842L4442 804H4758ZM4962.83 1642C4962.83 1530 4984.83 1430.67 5028.83 1344C5074.16 1257.33 5134.83 1190.67 5210.83 1144C5288.16 1097.33 5374.16 1074 5468.83 1074C5551.49 1074 5623.49 1090.67 5684.83 1124C5747.49 1157.33 5797.49 1199.33 5834.83 1250V1092H6116.83V2200H5834.83V2038C5798.83 2090 5748.83 2133.33 5684.83 2168C5622.16 2201.33 5549.49 2218 5466.83 2218C5373.49 2218 5288.16 2194 5210.83 2146C5134.83 2098 5074.16 2030.67 5028.83 1944C4984.83 1856 4962.83 1755.33 4962.83 1642ZM5834.83 1646C5834.83 1578 5821.49 1520 5794.83 1472C5768.16 1422.67 5732.16 1385.33 5686.83 1360C5641.49 1333.33 5592.83 1320 5540.83 1320C5488.83 1320 5440.83 1332.67 5396.83 1358C5352.83 1383.33 5316.83 1420.67 5288.83 1470C5262.16 1518 5248.83 1575.33 5248.83 1642C5248.83 1708.67 5262.16 1767.33 5288.83 1818C5316.83 1867.33 5352.83 1905.33 5396.83 1932C5442.16 1958.67 5490.16 1972 5540.83 1972C5592.83 1972 5641.49 1959.33 5686.83 1934C5732.16 1907.33 5768.16 1870 5794.83 1822C5821.49 1772.67 5834.83 1714 5834.83 1646ZM6814.3 2218C6723.63 2218 6642.3 2202 6570.3 2170C6498.3 2136.67 6440.96 2092 6398.3 2036C6356.96 1980 6334.3 1918 6330.3 1850H6612.3C6617.63 1892.67 6638.3 1928 6674.3 1956C6711.63 1984 6757.63 1998 6812.3 1998C6865.63 1998 6906.96 1987.33 6936.3 1966C6966.96 1944.67 6982.3 1917.33 6982.3 1884C6982.3 1848 6963.63 1821.33 6926.3 1804C6890.3 1785.33 6832.3 1765.33 6752.3 1744C6669.63 1724 6601.63 1703.33 6548.3 1682C6496.3 1660.67 6450.96 1628 6412.3 1584C6374.96 1540 6356.3 1480.67 6356.3 1406C6356.3 1344.67 6373.63 1288.67 6408.3 1238C6444.3 1187.33 6494.96 1147.33 6560.3 1118C6626.96 1088.67 6704.96 1074 6794.3 1074C6926.3 1074 7031.63 1107.33 7110.3 1174C7188.96 1239.33 7232.3 1328 7240.3 1440H6972.3C6968.3 1396 6949.63 1361.33 6916.3 1336C6884.3 1309.33 6840.96 1296 6786.3 1296C6735.63 1296 6696.3 1305.33 6668.3 1324C6641.63 1342.67 6628.3 1368.67 6628.3 1402C6628.3 1439.33 6646.96 1468 6684.3 1488C6721.63 1506.67 6779.63 1526 6858.3 1546C6938.3 1566 7004.3 1586.67 7056.3 1608C7108.3 1629.33 7152.96 1662.67 7190.3 1708C7228.96 1752 7248.96 1810.67 7250.3 1884C7250.3 1948 7232.3 2005.33 7196.3 2056C7161.63 2106.67 7110.96 2146.67 7044.3 2176C6978.96 2204 6902.3 2218 6814.3 2218ZM7806.14 1322V1858C7806.14 1895.33 7814.81 1922.67 7832.14 1940C7850.81 1956 7881.47 1964 7924.14 1964H8054.14V2200H7878.14C7642.14 2200 7524.14 2085.33 7524.14 1856V1322H7392.14V1092H7524.14V818H7806.14V1092H8054.14V1322H7806.14ZM9285.53 1622C9285.53 1662 9282.86 1698 9277.53 1730H8467.53C8474.2 1810 8502.2 1872.67 8551.53 1918C8600.86 1963.33 8661.53 1986 8733.53 1986C8837.53 1986 8911.53 1941.33 8955.53 1852H9257.53C9225.53 1958.67 9164.2 2046.67 9073.53 2116C8982.86 2184 8871.53 2218 8739.53 2218C8632.86 2218 8536.86 2194.67 8451.53 2148C8367.53 2100 8301.53 2032.67 8253.53 1946C8206.86 1859.33 8183.53 1759.33 8183.53 1646C8183.53 1531.33 8206.86 1430.67 8253.53 1344C8300.2 1257.33 8365.53 1190.67 8449.53 1144C8533.53 1097.33 8630.2 1074 8739.53 1074C8844.86 1074 8938.86 1096.67 9021.53 1142C9105.53 1187.33 9170.2 1252 9215.53 1336C9262.2 1418.67 9285.53 1514 9285.53 1622ZM8995.53 1542C8994.2 1470 8968.2 1412.67 8917.53 1370C8866.86 1326 8804.86 1304 8731.53 1304C8662.2 1304 8603.53 1325.33 8555.53 1368C8508.86 1409.33 8480.2 1467.33 8469.53 1542H8995.53ZM9769.91 1264C9805.91 1205.33 9852.57 1159.33 9909.91 1126C9968.57 1092.67 10035.2 1076 10109.9 1076V1370H10035.9C9947.91 1370 9881.24 1390.67 9835.91 1432C9791.91 1473.33 9769.91 1545.33 9769.91 1648V2200H9489.91V1092H9769.91V1264ZM10790.5 2218C10683.8 2218 10587.8 2194.67 10502.5 2148C10417.2 2100 10349.8 2032.67 10300.5 1946C10252.5 1859.33 10228.5 1759.33 10228.5 1646C10228.5 1532.67 10253.2 1432.67 10302.5 1346C10353.2 1259.33 10421.8 1192.67 10508.5 1146C10595.2 1098 10691.8 1074 10798.5 1074C10905.2 1074 11001.8 1098 11088.5 1146C11175.2 1192.67 11243.2 1259.33 11292.5 1346C11343.2 1432.67 11368.5 1532.67 11368.5 1646C11368.5 1759.33 11342.5 1859.33 11290.5 1946C11239.8 2032.67 11170.5 2100 11082.5 2148C10995.8 2194.67 10898.5 2218 10790.5 2218ZM10790.5 1974C10841.2 1974 10888.5 1962 10932.5 1938C10977.8 1912.67 11013.8 1875.33 11040.5 1826C11067.2 1776.67 11080.5 1716.67 11080.5 1646C11080.5 1540.67 11052.5 1460 10996.5 1404C10941.8 1346.67 10874.5 1318 10794.5 1318C10714.5 1318 10647.2 1346.67 10592.5 1404C10539.2 1460 10512.5 1540.67 10512.5 1646C10512.5 1751.33 10538.5 1832.67 10590.5 1890C10643.8 1946 10710.5 1974 10790.5 1974ZM12065.9 2218C11959.2 2218 11863.2 2194.67 11777.9 2148C11692.6 2100 11625.2 2032.67 11575.9 1946C11527.9 1859.33 11503.9 1759.33 11503.9 1646C11503.9 1532.67 11528.6 1432.67 11577.9 1346C11628.6 1259.33 11697.2 1192.67 11783.9 1146C11870.6 1098 11967.2 1074 12073.9 1074C12180.6 1074 12277.2 1098 12363.9 1146C12450.6 1192.67 12518.6 1259.33 12567.9 1346C12618.6 1432.67 12643.9 1532.67 12643.9 1646C12643.9 1759.33 12617.9 1859.33 12565.9 1946C12515.2 2032.67 12445.9 2100 12357.9 2148C12271.2 2194.67 12173.9 2218 12065.9 2218ZM12065.9 1974C12116.6 1974 12163.9 1962 12207.9 1938C12253.2 1912.67 12289.2 1875.33 12315.9 1826C12342.6 1776.67 12355.9 1716.67 12355.9 1646C12355.9 1540.67 12327.9 1460 12271.9 1404C12217.2 1346.67 12149.9 1318 12069.9 1318C11989.9 1318 11922.6 1346.67 11867.9 1404C11814.6 1460 11787.9 1540.67 11787.9 1646C11787.9 1751.33 11813.9 1832.67 11865.9 1890C11919.2 1946 11985.9 1974 12065.9 1974ZM14225.3 1076C14361.3 1076 14470.6 1118 14553.3 1202C14637.3 1284.67 14679.3 1400.67 14679.3 1550V2200H14399.3V1588C14399.3 1501.33 14377.3 1435.33 14333.3 1390C14289.3 1343.33 14229.3 1320 14153.3 1320C14077.3 1320 14016.6 1343.33 13971.3 1390C13927.3 1435.33 13905.3 1501.33 13905.3 1588V2200H13625.3V1588C13625.3 1501.33 13603.3 1435.33 13559.3 1390C13515.3 1343.33 13455.3 1320 13379.3 1320C13301.9 1320 13240.6 1343.33 13195.3 1390C13151.3 1435.33 13129.3 1501.33 13129.3 1588V2200H12849.3V1092H13129.3V1226C13165.3 1179.33 13211.3 1142.67 13267.3 1116C13324.6 1089.33 13387.3 1076 13455.3 1076C13541.9 1076 13619.3 1094.67 13687.3 1132C13755.3 1168 13807.9 1220 13845.3 1288C13881.3 1224 13933.3 1172.67 14001.3 1134C14070.6 1095.33 14145.3 1076 14225.3 1076Z" fill="#0036AA"/>
</svg>
