<svg width="1286" height="259" viewBox="0 0 1286 259" fill="none" xmlns="http://www.w3.org/2000/svg">
<path d="M61.5749 163.069C85.4216 152.849 122.894 148.673 122.894 148.673C122.894 148.673 160.368 152.849 180.807 163.069C201.248 173.29 214.874 190.32 214.874 190.32L122.894 241.41L24.1014 190.32C24.1014 190.32 37.7281 173.29 61.5749 163.069Z" fill="#0063D3" fill-opacity="0.72"/>
<path d="M119.533 57.75C153.615 57.7501 214.964 78.8232 214.964 78.8232C214.964 78.8232 196.218 138.531 180.881 166.63C165.567 194.686 119.672 240.47 119.533 240.609C119.449 240.526 73.5072 194.703 58.184 166.63C42.8468 138.532 24.101 78.8232 24.101 78.8232C24.101 78.8232 85.4502 57.75 119.533 57.75Z" fill="#54C0FF" fill-opacity="0.61"/>
<g filter="url(#filter0_d_134_76)">
<path d="M105.878 21.0429C114.31 16.1745 124.699 16.1745 133.131 21.0429L206.186 63.2215C214.619 68.0892 219.813 77.0865 219.813 86.8232V171.18C219.813 180.917 214.619 189.914 206.186 194.782L133.131 236.96C124.699 241.828 114.31 241.828 105.878 236.96L32.8231 194.782C24.391 189.914 19.1965 180.917 19.1965 171.18V86.8232C19.1965 77.0865 24.391 68.0892 32.8231 63.2215L105.878 21.0429Z" stroke="white" stroke-width="12.9078" shape-rendering="crispEdges"/>
</g>
<path d="M58.178 98.3428L121.249 125.596L180.818 98.3428" stroke="#00F2FF" stroke-width="14.7024"/>
<path d="M119.533 125.597V180.103" stroke="#00F2FF" stroke-width="14.7024"/>
<g filter="url(#filter1_d_134_76)">
<path d="M410.043 69.2605V189.389H385.949V111.254L353.765 189.389H335.522L303.167 111.254V189.389H279.072V69.2605H306.437L344.644 158.582L382.851 69.2605H410.043ZM427.669 141.372C427.669 131.734 429.562 123.186 433.348 115.728C437.249 108.271 442.47 102.534 449.01 98.5181C455.664 94.5023 463.065 92.4944 471.211 92.4944C478.325 92.4944 484.52 93.9286 489.798 96.797C495.191 99.6654 499.493 103.28 502.706 107.64V94.0434H526.973V189.389H502.706V175.448C499.608 179.923 495.306 183.652 489.798 186.635C484.406 189.503 478.153 190.938 471.039 190.938C463.007 190.938 455.664 188.872 449.01 184.742C442.47 180.611 437.249 174.817 433.348 167.359C429.562 159.787 427.669 151.124 427.669 141.372ZM502.706 141.716C502.706 135.865 501.559 130.874 499.264 126.743C496.969 122.498 493.871 119.285 489.97 117.105C486.069 114.811 481.881 113.663 477.407 113.663C472.932 113.663 468.802 114.753 465.015 116.933C461.229 119.113 458.131 122.326 455.722 126.571C453.427 130.701 452.28 135.635 452.28 141.372C452.28 147.109 453.427 152.157 455.722 156.517C458.131 160.762 461.229 164.032 465.015 166.327C468.916 168.622 473.047 169.769 477.407 169.769C481.881 169.769 486.069 168.679 489.97 166.499C493.871 164.204 496.969 160.992 499.264 156.861C501.559 152.616 502.706 147.568 502.706 141.716ZM586.991 190.938C579.189 190.938 572.19 189.561 565.994 186.807C559.799 183.939 554.865 180.095 551.193 175.276C547.637 170.457 545.686 165.122 545.342 159.271H569.608C570.067 162.942 571.846 165.983 574.944 168.392C578.156 170.802 582.115 172.006 586.819 172.006C591.408 172.006 594.965 171.088 597.489 169.253C600.128 167.417 601.448 165.065 601.448 162.196C601.448 159.098 599.841 156.804 596.629 155.312C593.531 153.706 588.54 151.985 581.656 150.149C574.542 148.428 568.691 146.65 564.101 144.814C559.626 142.978 555.725 140.167 552.398 136.381C549.186 132.595 547.579 127.489 547.579 121.064C547.579 115.786 549.071 110.967 552.054 106.607C555.152 102.247 559.512 98.8049 565.134 96.2807C570.871 93.7565 577.583 92.4944 585.27 92.4944C596.629 92.4944 605.693 95.3628 612.462 101.1C619.232 106.722 622.961 114.352 623.649 123.989H600.587C600.243 120.203 598.637 117.22 595.768 115.04C593.015 112.745 589.286 111.598 584.581 111.598C580.222 111.598 576.837 112.401 574.427 114.007C572.133 115.614 570.985 117.851 570.985 120.719C570.985 123.932 572.592 126.399 575.804 128.12C579.017 129.726 584.008 131.39 590.777 133.111C597.661 134.832 603.341 136.61 607.815 138.446C612.29 140.282 616.134 143.15 619.346 147.051C622.674 150.838 624.395 155.886 624.509 162.196C624.509 167.704 622.961 172.637 619.863 176.997C616.88 181.357 612.52 184.799 606.783 187.323C601.161 189.733 594.563 190.938 586.991 190.938ZM672.341 113.835V159.959C672.341 163.172 673.087 165.524 674.578 167.015C676.184 168.392 678.823 169.08 682.495 169.08H693.682V189.389H678.536C658.228 189.389 648.074 179.521 648.074 159.787V113.835H636.715V94.0434H648.074V70.4652H672.341V94.0434H693.682V113.835H672.341ZM799.645 139.651C799.645 143.093 799.415 146.191 798.956 148.944H729.255C729.828 155.829 732.238 161.221 736.483 165.122C740.728 169.023 745.949 170.974 752.144 170.974C761.094 170.974 767.462 167.13 771.248 159.443H797.235C794.482 168.622 789.204 176.194 781.402 182.16C773.6 188.012 764.019 190.938 752.661 190.938C743.482 190.938 735.221 188.93 727.878 184.914C720.649 180.784 714.97 174.989 710.84 167.532C706.824 160.074 704.816 151.469 704.816 141.716C704.816 131.849 706.824 123.186 710.84 115.728C714.855 108.271 720.477 102.534 727.706 98.5181C734.934 94.5023 743.252 92.4944 752.661 92.4944C761.725 92.4944 769.814 94.445 776.927 98.346C784.156 102.247 789.72 107.812 793.621 115.04C797.637 122.154 799.645 130.357 799.645 139.651ZM774.69 132.767C774.575 126.571 772.338 121.637 767.978 117.966C763.618 114.179 758.283 112.286 751.972 112.286C746.006 112.286 740.958 114.122 736.827 117.794C732.811 121.35 730.345 126.341 729.427 132.767H774.69ZM841.326 108.844C844.424 103.796 848.44 99.8375 853.373 96.9691C858.422 94.1007 864.159 92.6665 870.584 92.6665V117.966H864.216C856.643 117.966 850.907 119.744 847.006 123.301C843.219 126.858 841.326 133.053 841.326 141.888V189.389H817.232V94.0434H841.326V108.844ZM929.15 190.938C919.971 190.938 911.71 188.93 904.367 184.914C897.024 180.784 891.23 174.989 886.985 167.532C882.854 160.074 880.789 151.469 880.789 141.716C880.789 131.963 882.912 123.358 887.157 115.901C891.517 108.443 897.426 102.706 904.883 98.6902C912.341 94.5597 920.66 92.4944 929.838 92.4944C939.017 92.4944 947.336 94.5597 954.793 98.6902C962.251 102.706 968.103 108.443 972.348 115.901C976.708 123.358 978.888 131.963 978.888 141.716C978.888 151.469 976.651 160.074 972.176 167.532C967.816 174.989 961.85 180.784 954.277 184.914C946.819 188.93 938.444 190.938 929.15 190.938ZM929.15 169.941C933.51 169.941 937.583 168.908 941.369 166.843C945.27 164.663 948.368 161.451 950.663 157.205C952.958 152.96 954.105 147.797 954.105 141.716C954.105 132.652 951.696 125.71 946.877 120.892C942.173 115.958 936.378 113.491 929.494 113.491C922.61 113.491 916.816 115.958 912.112 120.892C907.522 125.71 905.228 132.652 905.228 141.716C905.228 150.78 907.465 157.779 911.94 162.713C916.529 167.532 922.266 169.941 929.15 169.941ZM1038.9 190.938C1029.72 190.938 1021.46 188.93 1014.12 184.914C1006.77 180.784 1000.98 174.989 996.734 167.532C992.604 160.074 990.538 151.469 990.538 141.716C990.538 131.963 992.661 123.358 996.906 115.901C1001.27 108.443 1007.18 102.706 1014.63 98.6902C1022.09 94.5597 1030.41 92.4944 1039.59 92.4944C1048.77 92.4944 1057.09 94.5597 1064.54 98.6902C1072 102.706 1077.85 108.443 1082.1 115.901C1086.46 123.358 1088.64 131.963 1088.64 141.716C1088.64 151.469 1086.4 160.074 1081.93 167.532C1077.57 174.989 1071.6 180.784 1064.03 184.914C1056.57 188.93 1048.19 190.938 1038.9 190.938ZM1038.9 169.941C1043.26 169.941 1047.33 168.908 1051.12 166.843C1055.02 164.663 1058.12 161.451 1060.41 157.205C1062.71 152.96 1063.85 147.797 1063.85 141.716C1063.85 132.652 1061.45 125.71 1056.63 120.892C1051.92 115.958 1046.13 113.491 1039.24 113.491C1032.36 113.491 1026.57 115.958 1021.86 120.892C1017.27 125.71 1014.98 132.652 1014.98 141.716C1014.98 150.78 1017.21 157.779 1021.69 162.713C1026.28 167.532 1032.02 169.941 1038.9 169.941ZM1224.72 92.6665C1236.42 92.6665 1245.83 96.2807 1252.94 103.509C1260.17 110.623 1263.79 120.605 1263.79 133.455V189.389H1239.69V136.725C1239.69 129.267 1237.8 123.588 1234.01 119.687C1230.23 115.671 1225.06 113.663 1218.52 113.663C1211.98 113.663 1206.76 115.671 1202.86 119.687C1199.08 123.588 1197.18 129.267 1197.18 136.725V189.389H1173.09V136.725C1173.09 129.267 1171.19 123.588 1167.41 119.687C1163.62 115.671 1158.46 113.663 1151.92 113.663C1145.26 113.663 1139.99 115.671 1136.09 119.687C1132.3 123.588 1130.41 129.267 1130.41 136.725V189.389H1106.31V94.0434H1130.41V105.574C1133.5 101.559 1137.46 98.4033 1142.28 96.1086C1147.21 93.8139 1152.61 92.6665 1158.46 92.6665C1165.92 92.6665 1172.57 94.2728 1178.42 97.4854C1184.27 100.583 1188.81 105.058 1192.02 110.91C1195.12 105.402 1199.59 100.985 1205.44 97.6575C1211.41 94.3302 1217.83 92.6665 1224.72 92.6665Z" fill="white"/>
</g>
<defs>
<filter id="filter0_d_134_76" x="8.11309" y="5.18925" width="227.947" height="250.55" filterUnits="userSpaceOnUse" color-interpolation-filters="sRGB">
<feFlood flood-opacity="0" result="BackgroundImageFix"/>
<feColorMatrix in="SourceAlpha" type="matrix" values="0 0 0 0 0 0 0 0 0 0 0 0 0 0 0 0 0 0 127 0" result="hardAlpha"/>
<feOffset dx="2.58155" dy="1.46288"/>
<feGaussianBlur stdDeviation="3.60557"/>
<feComposite in2="hardAlpha" operator="out"/>
<feColorMatrix type="matrix" values="0 0 0 0 0 0 0 0 0 0 0 0 0 0 0 0 0 0 0.42 0"/>
<feBlend mode="normal" in2="BackgroundImageFix" result="effect1_dropShadow_134_76"/>
<feBlend mode="normal" in="SourceGraphic" in2="effect1_dropShadow_134_76" result="shape"/>
</filter>
<filter id="filter1_d_134_76" x="259.633" y="50.0798" width="1026.17" height="163.136" filterUnits="userSpaceOnUse" color-interpolation-filters="sRGB">
<feFlood flood-opacity="0" result="BackgroundImageFix"/>
<feColorMatrix in="SourceAlpha" type="matrix" values="0 0 0 0 0 0 0 0 0 0 0 0 0 0 0 0 0 0 127 0" result="hardAlpha"/>
<feOffset dx="1.29078" dy="1.54893"/>
<feGaussianBlur stdDeviation="10.3649"/>
<feComposite in2="hardAlpha" operator="out"/>
<feColorMatrix type="matrix" values="0 0 0 0 0 0 0 0 0 0 0 0 0 0 0 0 0 0 0.65 0"/>
<feBlend mode="normal" in2="BackgroundImageFix" result="effect1_dropShadow_134_76"/>
<feBlend mode="normal" in="SourceGraphic" in2="effect1_dropShadow_134_76" result="shape"/>
</filter>
</defs>
</svg>
