<svg width="1276" height="259" viewBox="0 0 1276 259" fill="none" xmlns="http://www.w3.org/2000/svg">
<path d="M61.7354 163.147C85.5822 152.926 123.055 148.75 123.055 148.75C123.055 148.75 160.528 152.926 180.968 163.147C201.408 173.367 215.035 190.397 215.035 190.397L123.055 241.488L24.262 190.397C24.262 190.397 37.8887 173.367 61.7354 163.147Z" fill="#0063D3" fill-opacity="0.72"/>
<path d="M119.694 57.8271C153.776 57.8272 215.125 78.9004 215.125 78.9004C215.125 78.9004 196.379 138.609 181.042 166.707C165.727 194.765 119.826 240.554 119.694 240.687C119.601 240.594 73.6667 194.777 58.345 166.707C43.0079 138.609 24.262 78.9004 24.262 78.9004C24.262 78.9004 85.6113 57.8271 119.694 57.8271Z" fill="#54C0FF" fill-opacity="0.61"/>
<path d="M106.039 21.12C114.471 16.2517 124.86 16.2517 133.292 21.12L206.347 63.2986C214.779 68.1664 219.974 77.1636 219.974 86.9003V171.257C219.974 180.994 214.779 189.991 206.347 194.859L133.292 237.038C124.86 241.905 114.471 241.905 106.039 237.038L32.9836 194.859C24.5514 189.991 19.357 180.994 19.357 171.257V86.9003C19.357 77.1636 24.5514 68.1664 32.9836 63.2986L106.039 21.12Z" stroke="#00226D" stroke-width="12.9078"/>
<path d="M58.3384 98.4199L121.41 125.673L180.978 98.4199" stroke="white" stroke-width="14.7024"/>
<path d="M119.693 125.674V180.18" stroke="white" stroke-width="14.7024"/>
<path d="M410.204 69.3376V189.466H386.109V111.331L353.926 189.466H335.683L303.328 111.331V189.466H279.233V69.3376H306.597L344.804 158.659L383.011 69.3376H410.204ZM427.83 141.449C427.83 131.811 429.723 123.263 433.509 115.806C437.41 108.348 442.63 102.611 449.17 98.5952C455.825 94.5795 463.225 92.5716 471.372 92.5716C478.485 92.5716 484.681 94.0058 489.959 96.8742C495.351 99.7426 499.654 103.357 502.867 107.717V94.1205H527.133V189.466H502.867V175.525C499.769 180 495.466 183.729 489.959 186.712C484.566 189.581 478.313 191.015 471.2 191.015C463.168 191.015 455.825 188.95 449.17 184.819C442.63 180.689 437.41 174.894 433.509 167.437C429.723 159.864 427.83 151.201 427.83 141.449ZM502.867 141.793C502.867 135.942 501.719 130.951 499.425 126.82C497.13 122.575 494.032 119.362 490.131 117.182C486.23 114.888 482.042 113.74 477.567 113.74C473.093 113.74 468.962 114.83 465.176 117.01C461.39 119.19 458.292 122.403 455.882 126.648C453.588 130.779 452.44 135.712 452.44 141.449C452.44 147.186 453.588 152.234 455.882 156.594C458.292 160.839 461.39 164.109 465.176 166.404C469.077 168.699 473.207 169.846 477.567 169.846C482.042 169.846 486.23 168.756 490.131 166.576C494.032 164.281 497.13 161.069 499.425 156.938C501.719 152.693 502.867 147.645 502.867 141.793ZM587.152 191.015C579.35 191.015 572.351 189.638 566.155 186.884C559.959 184.016 555.026 180.172 551.354 175.353C547.797 170.534 545.847 165.199 545.503 159.348H569.769C570.228 163.019 572.006 166.06 575.104 168.469C578.317 170.879 582.275 172.083 586.979 172.083C591.569 172.083 595.126 171.165 597.65 169.33C600.289 167.494 601.608 165.142 601.608 162.273C601.608 159.176 600.002 156.881 596.789 155.389C593.692 153.783 588.701 152.062 581.816 150.226C574.703 148.505 568.851 146.727 564.262 144.891C559.787 143.055 555.886 140.244 552.559 136.458C549.346 132.672 547.74 127.566 547.74 121.141C547.74 115.863 549.231 111.044 552.215 106.684C555.312 102.324 559.672 98.8821 565.294 96.3579C571.031 93.8337 577.743 92.5716 585.431 92.5716C596.789 92.5716 605.853 95.44 612.623 101.177C619.392 106.799 623.121 114.429 623.81 124.067H600.748C600.404 120.28 598.797 117.297 595.929 115.117C593.175 112.822 589.446 111.675 584.742 111.675C580.382 111.675 576.997 112.478 574.588 114.085C572.293 115.691 571.146 117.928 571.146 120.797C571.146 124.009 572.752 126.476 575.965 128.197C579.177 129.803 584.168 131.467 590.938 133.188C597.822 134.909 603.501 136.687 607.976 138.523C612.451 140.359 616.294 143.227 619.507 147.128C622.834 150.915 624.555 155.963 624.67 162.273C624.67 167.781 623.121 172.714 620.023 177.074C617.04 181.434 612.68 184.876 606.943 187.401C601.321 189.81 594.724 191.015 587.152 191.015ZM672.501 113.912V160.036C672.501 163.249 673.247 165.601 674.739 167.092C676.345 168.469 678.984 169.158 682.656 169.158H693.842V189.466H678.697C658.389 189.466 648.235 179.599 648.235 159.864V113.912H636.876V94.1205H648.235V70.5424H672.501V94.1205H693.842V113.912H672.501ZM799.806 139.728C799.806 143.17 799.576 146.268 799.117 149.022H729.415C729.989 155.906 732.398 161.298 736.644 165.199C740.889 169.1 746.109 171.051 752.305 171.051C761.254 171.051 767.622 167.207 771.408 159.52H797.396C794.642 168.699 789.365 176.271 781.563 182.237C773.761 188.089 764.18 191.015 752.821 191.015C743.642 191.015 735.381 189.007 728.038 184.991C720.81 180.861 715.131 175.067 711 167.609C706.984 160.151 704.977 151.546 704.977 141.793C704.977 131.926 706.984 123.263 711 115.806C715.016 108.348 720.638 102.611 727.866 98.5952C735.095 94.5795 743.413 92.5716 752.821 92.5716C761.885 92.5716 769.974 94.5221 777.088 98.4231C784.316 102.324 789.881 107.889 793.782 115.117C797.798 122.231 799.806 130.434 799.806 139.728ZM774.851 132.844C774.736 126.648 772.498 121.714 768.138 118.043C763.779 114.257 758.443 112.363 752.133 112.363C746.167 112.363 741.118 114.199 736.988 117.871C732.972 121.428 730.505 126.419 729.587 132.844H774.851ZM841.487 108.921C844.585 103.873 848.6 99.9147 853.534 97.0463C858.582 94.1779 864.319 92.7437 870.744 92.7437V118.043H864.377C856.804 118.043 851.067 119.821 847.166 123.378C843.38 126.935 841.487 133.131 841.487 141.965V189.466H817.392V94.1205H841.487V108.921ZM929.311 191.015C920.132 191.015 911.871 189.007 904.528 184.991C897.185 180.861 891.391 175.067 887.145 167.609C883.015 160.151 880.95 151.546 880.95 141.793C880.95 132.041 883.072 123.435 887.317 115.978C891.677 108.52 897.586 102.783 905.044 98.7673C912.502 94.6368 920.82 92.5716 929.999 92.5716C939.178 92.5716 947.496 94.6368 954.954 98.7673C962.412 102.783 968.263 108.52 972.509 115.978C976.869 123.435 979.049 132.041 979.049 141.793C979.049 151.546 976.811 160.151 972.337 167.609C967.977 175.067 962.01 180.861 954.438 184.991C946.98 189.007 938.604 191.015 929.311 191.015ZM929.311 170.018C933.671 170.018 937.744 168.986 941.53 166.92C945.431 164.74 948.529 161.528 950.824 157.282C953.118 153.037 954.266 147.874 954.266 141.793C954.266 132.729 951.856 125.788 947.037 120.969C942.333 116.035 936.539 113.568 929.655 113.568C922.771 113.568 916.977 116.035 912.272 120.969C907.683 125.788 905.388 132.729 905.388 141.793C905.388 150.857 907.626 157.856 912.1 162.79C916.69 167.609 922.427 170.018 929.311 170.018ZM1039.06 191.015C1029.88 191.015 1021.62 189.007 1014.28 184.991C1006.93 180.861 1001.14 175.067 996.895 167.609C992.764 160.151 990.699 151.546 990.699 141.793C990.699 132.041 992.822 123.435 997.067 115.978C1001.43 108.52 1007.34 102.783 1014.79 98.7673C1022.25 94.6368 1030.57 92.5716 1039.75 92.5716C1048.93 92.5716 1057.25 94.6368 1064.7 98.7673C1072.16 102.783 1078.01 108.52 1082.26 115.978C1086.62 123.435 1088.8 132.041 1088.8 141.793C1088.8 151.546 1086.56 160.151 1082.09 167.609C1077.73 175.067 1071.76 180.861 1064.19 184.991C1056.73 189.007 1048.35 191.015 1039.06 191.015ZM1039.06 170.018C1043.42 170.018 1047.49 168.986 1051.28 166.92C1055.18 164.74 1058.28 161.528 1060.57 157.282C1062.87 153.037 1064.02 147.874 1064.02 141.793C1064.02 132.729 1061.61 125.788 1056.79 120.969C1052.08 116.035 1046.29 113.568 1039.4 113.568C1032.52 113.568 1026.73 116.035 1022.02 120.969C1017.43 125.788 1015.14 132.729 1015.14 141.793C1015.14 150.857 1017.38 157.856 1021.85 162.79C1026.44 167.609 1032.18 170.018 1039.06 170.018ZM1224.88 92.7437C1236.58 92.7437 1245.99 96.3579 1253.1 103.586C1260.33 110.7 1263.95 120.682 1263.95 133.532V189.466H1239.85V136.802C1239.85 129.344 1237.96 123.665 1234.17 119.764C1230.39 115.748 1225.22 113.74 1218.68 113.74C1212.14 113.74 1206.92 115.748 1203.02 119.764C1199.24 123.665 1197.34 129.344 1197.34 136.802V189.466H1173.25V136.802C1173.25 129.344 1171.36 123.665 1167.57 119.764C1163.78 115.748 1158.62 113.74 1152.08 113.74C1145.43 113.74 1140.15 115.748 1136.25 119.764C1132.46 123.665 1130.57 129.344 1130.57 136.802V189.466H1106.47V94.1205H1130.57V105.651C1133.66 101.636 1137.62 98.4805 1142.44 96.1858C1147.38 93.8911 1152.77 92.7437 1158.62 92.7437C1166.08 92.7437 1172.73 94.35 1178.58 97.5626C1184.44 100.66 1188.97 105.135 1192.18 110.987C1195.28 105.479 1199.75 101.062 1205.6 97.7347C1211.57 94.4074 1218 92.7437 1224.88 92.7437Z" fill="#0036AA"/>
</svg>
